<?xml version="1.0"?>
<svg xmlns="http://www.w3.org/2000/svg" id="Capa_1" enable-background="new 0 0 512 512" height="512px" viewBox="0 0 512 512" width="512px"><g><g><path d="m452 361v-30h-30v-15c0-52.804-39.183-96.623-90-103.924v-31.076h-30v31.076c-50.816 7.301-90 51.119-90 103.924v15h-30v30zm-210-45c0-41.355 33.645-75 75-75s75 33.645 75 75v15h-150z" data-original="#000000" class="active-path" data-old_color="#000000" fill="#FFFFFF"/><path d="m332 0h-332v421h122v91h390v-422h-180zm-210 391h-92v-361h223.459l-131.459 65.729zm180-351.729v50.729h-101.459zm180 80.729v362h-330v-362z" data-original="#000000" class="active-path" data-old_color="#000000" fill="#FFFFFF"/><path d="m212 421h210v30h-210z" data-original="#000000" class="active-path" data-old_color="#000000" fill="#FFFFFF"/></g></g> </svg>
