<?xml version="1.0"?>
<svg xmlns="http://www.w3.org/2000/svg" id="Capa_1" enable-background="new 0 0 512 512" height="512px" viewBox="0 0 512 512" width="512px"><g><g><g><path d="m512 263.809c0-18.737-15.256-33.98-34.009-33.98h-27.559v-108.855c0-5.523-4.477-10-10-10h-45.75c-5.523 0-10 4.477-10 10v21.748h-35.75c-5.523 0-10 4.477-10 10v77.107h-133.04v-31.306h72.458c11.86 0 21.509-9.661 21.509-21.537v-155.449c0-11.876-9.649-21.537-21.508-21.537h-249.189c-11.876 0-21.537 9.661-21.537 21.537v155.449c0 11.875 9.661 21.537 21.537 21.537h72.458v31.306h-67.611c-18.753 0-34.009 15.243-34.009 33.98 0 18.079 14.181 32.903 32.002 33.945v204.246c0 5.523 4.477 10 10 10h47.99c5.523 0 10-4.477 10-10v-34.673h311.987v34.673c0 5.523 4.477 10 10 10h48.018c5.523 0 10-4.477 10-10v-204.246c17.822-1.042 32.003-15.866 32.003-33.945zm-107.317-132.835h25.75v98.854h-25.75zm-45.751 31.748h25.75v67.107h-25.75zm-331.307 14.264v-25.915h81.217c5.523 0 10-4.477 10-10s-4.477-10-10-10h-81.217v-109.534c0-.833.704-1.537 1.537-1.537h249.189c.804 0 1.509.718 1.509 1.537v109.535h-81.217c-5.523 0-10 4.477-10 10s4.477 10 10 10h81.217v25.915c0 .818-.705 1.537-1.509 1.537h-249.189c-.833-.002-1.537-.705-1.537-1.538zm93.995 21.536h64.272v31.306h-64.272zm-41.628 293.478h-27.99v-194.182h27.99v71.976zm165.994-194.182v61.976h-145.994v-61.976zm165.993 0v61.976h-145.993v-61.976zm-311.987 149.509v-67.532h311.987v67.532zm331.987 44.673v-122.206-71.976h28.018v194.182zm46.012-214.182h-443.982c-7.725 0-14.009-6.285-14.009-14.009 0-7.709 6.284-13.98 14.009-13.98h443.982c7.725 0 14.009 6.271 14.009 13.98 0 7.725-6.284 14.009-14.009 14.009z" data-original="#000000" class="active-path" data-old_color="#000000" fill="#FFFFFF"/><path d="m327.984 338.807h21.997c5.523 0 10-4.477 10-10s-4.477-10-10-10h-21.997c-5.523 0-10 4.477-10 10s4.477 10 10 10z" data-original="#000000" class="active-path" data-old_color="#000000" fill="#FFFFFF"/><path d="m161.991 338.807h21.997c5.523 0 10-4.477 10-10s-4.477-10-10-10h-21.997c-5.523 0-10 4.477-10 10s4.477 10 10 10z" data-original="#000000" class="active-path" data-old_color="#000000" fill="#FFFFFF"/><path d="m153.742 151.071c5.523 0 10-4.477 10-10s-4.477-10-10-10h-.028c-5.523 0-9.986 4.477-9.986 10s4.491 10 10.014 10z" data-original="#000000" class="active-path" data-old_color="#000000" fill="#FFFFFF"/></g></g></g> </svg>
