<?xml version="1.0"?>
<svg xmlns="http://www.w3.org/2000/svg" id="Layer_1" enable-background="new 0 0 512 512" height="512px" viewBox="0 0 512 512" width="512px"><g><g><g><path d="m485.096 201.844-63.03-137.987c-6.227-13.63-13.287-20.902-26.982-27.79l-69.592-35c-2.192-1.102-4.711-1.361-7.081-.726-48.413 12.973-76.41 12.972-124.821 0-2.37-.636-4.891-.376-7.081.726l-69.591 35c-13.695 6.888-20.756 14.16-26.982 27.791l-63.031 137.986c-2.087 4.567-.463 9.974 3.796 12.635l75.303 47.064v240.457c0 5.523 4.478 10 10 10h279.995c5.522 0 10-4.477 10-10v-240.457l75.302-47.064c4.257-2.661 5.882-8.068 3.795-12.635zm-175.901-178.579c-6.199 21.438-27.696 37.298-53.195 37.298s-46.995-15.86-53.194-37.297c39.005 9.056 67.382 9.057 106.389-.001zm96.803 214.693v-61.96c0-5.523-4.478-10-10-10s-10 4.477-10 10v316.002h-259.995v-316.002c0-5.523-4.478-10-10-10s-10 4.477-10 10v61.96l-57.26-35.787 59.384-130.003c4.326-9.471 8.147-13.39 17.777-18.233l20.372-10.246c10.176 28.542 32.538 52.331 61.66 64.96 1.296.562 2.646.828 3.974.828 3.864 0 7.544-2.253 9.18-6.024 2.197-5.067-.129-10.956-5.196-13.153-24.839-10.771-43.683-31.271-51.583-55.681l18.394-9.251c7.3 31.51 37.382 55.196 73.295 55.196s65.996-23.686 73.296-55.196l18.394 9.251c-7.899 24.412-26.745 44.913-51.588 55.684-5.067 2.197-7.395 8.085-5.197 13.153 1.635 3.771 5.315 6.024 9.18 6.024 1.327 0 2.678-.266 3.973-.828 29.127-12.628 51.492-36.419 61.668-64.963l20.372 10.246c9.63 4.843 13.451 8.762 17.777 18.232l59.384 130.003z" data-original="#000000" class="active-path" data-old_color="#000000" fill="#FFFFFF"/><path d="m256 98.561h-.007c-5.522 0-9.996 4.477-9.996 10s4.48 10 10.003 10 10-4.477 10-10-4.477-10-10-10z" data-original="#000000" class="active-path" data-old_color="#000000" fill="#FFFFFF"/></g></g></g> </svg>
