<?xml version="1.0"?>
<svg xmlns="http://www.w3.org/2000/svg" xmlns:xlink="http://www.w3.org/1999/xlink" version="1.1" id="Capa_1" x="0px" y="0px" viewBox="0 0 480 480" style="enable-background:new 0 0 480 480;" xml:space="preserve" width="512px" height="512px"><g><g>
	<g>
		<path d="M240,40c-35.346,0-64,28.654-64,64c0,35.346,28.654,64,64,64c35.33-0.04,63.96-28.67,64-64C304,68.654,275.346,40,240,40z     M240,152c-26.499-0.026-47.974-21.501-48-48c0-26.51,21.49-48,48-48c26.51,0,48,21.49,48,48S266.51,152,240,152z" data-original="#000000" class="active-path" data-old_color="#000000" fill="#FFFFFF"/>
	</g>
</g><g>
	<g>
		<path d="M474.528,224.416l-96-32c-1.407-0.468-2.915-0.54-4.36-0.208l-65.368,15.36C327.92,167.312,344,126.664,344,104    C344,46.562,297.438,0,240,0S136,46.562,136,104c0,22.456,15.776,62.544,34.608,102.4l-56.664-14.16    c-1.414-0.368-2.903-0.329-4.296,0.112l-104,32C2.29,225.385-0.001,228.487,0,232v240c0,4.418,3.582,8,8,8    c0.797-0.002,1.589-0.121,2.352-0.352l101.864-31.344l125.848,31.456c1.238,0.304,2.53,0.304,3.768,0L375.2,448.304l94.328,31.288    c4.202,1.365,8.715-0.934,10.081-5.137c0.258-0.793,0.39-1.622,0.391-2.455V232C479.997,228.558,477.794,225.504,474.528,224.416z     M152,104c0.057-48.577,39.423-87.943,88-88c48.577,0.057,87.943,39.423,88,88c0,22.768-19.288,68.08-40.48,110.984    C269.464,251.568,250.04,286.4,240,304C218.168,265.712,152,146.184,152,104z M464,460.912l-85.96-28.504    c-1.402-0.477-2.912-0.547-4.352-0.2l-133.6,31.56L113.936,432.24c-1.412-0.363-2.897-0.325-4.288,0.112L16,461.168V237.904    l96.216-29.6l67.472,16.88c24.8,50.12,51.344,95.352,53.424,98.88c2.247,3.804,7.153,5.066,10.957,2.819    c1.163-0.687,2.132-1.657,2.819-2.819c2.072-3.504,28.28-48.2,52.952-97.944l75.784-17.816L464,237.768V460.912z" data-original="#000000" class="active-path" data-old_color="#000000" fill="#FFFFFF"/>
	</g>
</g></g> </svg>
