<?xml version="1.0"?>
<svg xmlns="http://www.w3.org/2000/svg" xmlns:xlink="http://www.w3.org/1999/xlink" version="1.1" id="Capa_1" x="0px" y="0px" viewBox="0 0 477.867 477.867" style="enable-background:new 0 0 477.867 477.867;" xml:space="preserve" width="512px" height="512px"><g><g>
	<g>
		<path d="M119.467,0h-102.4C7.641,0,0,7.641,0,17.067v102.4c0,9.426,7.641,17.067,17.067,17.067h102.4    c9.426,0,17.067-7.641,17.067-17.067v-102.4C136.533,7.641,128.892,0,119.467,0z M102.4,102.4H34.133V34.133H102.4V102.4z" data-original="#000000" class="active-path" data-old_color="#000000" fill="#FFFFFF"/>
	</g>
</g><g>
	<g>
		<path d="M290.133,0h-102.4c-9.426,0-17.067,7.641-17.067,17.067v102.4c0,9.426,7.641,17.067,17.067,17.067h102.4    c9.426,0,17.067-7.641,17.067-17.067v-102.4C307.2,7.641,299.559,0,290.133,0z M273.067,102.4H204.8V34.133h68.267V102.4z" data-original="#000000" class="active-path" data-old_color="#000000" fill="#FFFFFF"/>
	</g>
</g><g>
	<g>
		<path d="M460.8,0H358.4c-9.426,0-17.067,7.641-17.067,17.067v102.4c0,9.426,7.641,17.067,17.067,17.067h102.4    c9.426,0,17.067-7.641,17.067-17.067v-102.4C477.867,7.641,470.226,0,460.8,0z M443.733,102.4h-68.267V34.133h68.267V102.4z" data-original="#000000" class="active-path" data-old_color="#000000" fill="#FFFFFF"/>
	</g>
</g><g>
	<g>
		<path d="M119.467,170.667h-102.4C7.641,170.667,0,178.308,0,187.733v102.4c0,9.426,7.641,17.067,17.067,17.067h102.4    c9.426,0,17.067-7.641,17.067-17.067v-102.4C136.533,178.308,128.892,170.667,119.467,170.667z M102.4,273.067H34.133V204.8H102.4    V273.067z" data-original="#000000" class="active-path" data-old_color="#000000" fill="#FFFFFF"/>
	</g>
</g><g>
	<g>
		<path d="M290.133,170.667h-102.4c-9.426,0-17.067,7.641-17.067,17.067v102.4c0,9.426,7.641,17.067,17.067,17.067h102.4    c9.426,0,17.067-7.641,17.067-17.067v-102.4C307.2,178.308,299.559,170.667,290.133,170.667z M273.067,273.067H204.8V204.8h68.267    V273.067z" data-original="#000000" class="active-path" data-old_color="#000000" fill="#FFFFFF"/>
	</g>
</g><g>
	<g>
		<path d="M460.8,170.667H358.4c-9.426,0-17.067,7.641-17.067,17.067v102.4c0,9.426,7.641,17.067,17.067,17.067h102.4    c9.426,0,17.067-7.641,17.067-17.067v-102.4C477.867,178.308,470.226,170.667,460.8,170.667z M443.733,273.067h-68.267V204.8    h68.267V273.067z" data-original="#000000" class="active-path" data-old_color="#000000" fill="#FFFFFF"/>
	</g>
</g><g>
	<g>
		<path d="M119.467,341.333h-102.4C7.641,341.333,0,348.974,0,358.4v102.4c0,9.426,7.641,17.067,17.067,17.067h102.4    c9.426,0,17.067-7.641,17.067-17.067V358.4C136.533,348.974,128.892,341.333,119.467,341.333z M102.4,443.733H34.133v-68.267    H102.4V443.733z" data-original="#000000" class="active-path" data-old_color="#000000" fill="#FFFFFF"/>
	</g>
</g><g>
	<g>
		<path d="M290.133,341.333h-102.4c-9.426,0-17.067,7.641-17.067,17.067v102.4c0,9.426,7.641,17.067,17.067,17.067h102.4    c9.426,0,17.067-7.641,17.067-17.067V358.4C307.2,348.974,299.559,341.333,290.133,341.333z M273.067,443.733H204.8v-68.267    h68.267V443.733z" data-original="#000000" class="active-path" data-old_color="#000000" fill="#FFFFFF"/>
	</g>
</g><g>
	<g>
		<path d="M460.8,341.333H358.4c-9.426,0-17.067,7.641-17.067,17.067v102.4c0,9.426,7.641,17.067,17.067,17.067h102.4    c9.426,0,17.067-7.641,17.067-17.067V358.4C477.867,348.974,470.226,341.333,460.8,341.333z M443.733,443.733h-68.267v-68.267    h68.267V443.733z" data-original="#000000" class="active-path" data-old_color="#000000" fill="#FFFFFF"/>
	</g>
</g></g> </svg>
